<?xml version="1.0" standalone="no"?>
<!DOCTYPE svg PUBLIC "-//W3C//DTD SVG 20010904//EN"
 "http://www.w3.org/TR/2001/REC-SVG-20010904/DTD/svg10.dtd">
<svg version="1.0" xmlns="http://www.w3.org/2000/svg"
 width="2448.000000pt" height="2448.000000pt" viewBox="0 0 2448.000000 2448.000000"
 preserveAspectRatio="xMidYMid meet">

<g transform="translate(0.000000,2448.000000) scale(0.100000,-0.100000)"
fill="#000000" stroke="none">
<path d="M11800 24059 c-316 -11 -517 -26 -875 -65 -1286 -142 -2516 -487
-3700 -1039 -266 -124 -720 -362 -935 -490 -332 -198 -637 -395 -871 -563 -83
-59 -169 -120 -192 -137 -195 -138 -632 -494 -907 -739 -174 -155 -711 -692
-866 -866 -245 -275 -601 -712 -739 -907 -17 -23 -78 -109 -137 -192 -168
-234 -365 -539 -563 -871 -364 -611 -734 -1426 -983 -2165 -556 -1646 -740
-3392 -542 -5141 142 -1260 491 -2492 1035 -3659 124 -266 362 -720 490 -935
198 -332 395 -637 563 -871 59 -83 120 -169 137 -192 138 -195 494 -632 739
-907 155 -174 692 -711 866 -866 275 -245 712 -601 907 -739 23 -17 109 -78
192 -137 234 -168 539 -365 871 -563 361 -215 916 -492 1370 -683 1549 -652
3256 -968 4933 -913 576 19 1033 62 1552 147 1100 180 2102 489 3110 959 266
124 720 362 935 490 332 198 637 395 871 563 83 59 169 120 192 137 195 138
632 494 907 739 174 155 711 692 866 866 245 275 601 712 739 907 17 23 78
109 137 192 168 234 365 539 563 871 128 215 366 669 490 935 544 1167 893
2399 1035 3659 41 366 57 594 71 1005 25 738 -26 1518 -147 2256 -180 1100
-489 2102 -959 3110 -124 266 -362 720 -490 935 -198 332 -395 637 -563 871
-59 83 -120 169 -137 192 -138 195 -494 632 -739 907 -155 174 -692 711 -866
866 -275 245 -712 601 -907 739 -23 17 -109 78 -192 137 -234 168 -539 365
-871 563 -215 128 -669 366 -935 490 -1006 469 -2012 779 -3110 959 -766 125
-1543 173 -2345 145z m-3256 -5241 c135 -27 228 -59 345 -117 230 -116 437
-288 628 -522 73 -89 224 -312 260 -384 14 -27 34 -62 44 -76 l19 -27 192 64
c106 36 236 76 288 90 52 14 122 34 155 44 229 69 812 173 1150 205 230 22
797 31 1040 16 615 -38 1247 -163 1815 -360 96 -33 178 -57 181 -53 4 4 33 52
64 107 306 532 714 885 1151 996 281 71 573 51 879 -59 87 -31 581 -275 1105
-544 91 -47 255 -132 365 -188 844 -433 1391 -732 1900 -1038 785 -472 1325
-890 1561 -1209 79 -106 141 -240 155 -333 32 -210 -39 -690 -212 -1435 -53
-229 -224 -895 -304 -1190 -26 -93 -60 -217 -75 -275 -15 -58 -51 -190 -80
-295 -229 -842 -302 -1157 -302 -1315 -1 -146 43 -264 260 -710 155 -318 183
-382 232 -527 63 -190 71 -326 21 -393 -31 -43 -117 -79 -216 -91 -237 -29
-966 80 -1480 221 -1010 277 -1752 716 -2145 1269 -44 61 -60 92 -60 117 0 20
-27 88 -69 176 -178 371 -280 640 -351 928 -49 201 -63 330 -54 522 16 377
-51 1392 -142 2138 -49 410 -56 460 -99 740 -79 514 -155 894 -255 1270 -204
769 -478 1223 -805 1335 -69 23 -191 30 -267 15 -87 -17 -220 -88 -300 -160
-87 -79 -108 -113 -108 -180 0 -49 3 -56 40 -92 35 -33 47 -38 86 -38 58 0 74
9 155 85 36 34 90 74 119 88 287 143 589 -287 821 -1166 50 -190 129 -553 164
-757 14 -85 30 -173 35 -195 5 -22 30 -182 55 -355 137 -938 228 -2056 224
-2735 -2 -312 6 -382 76 -645 63 -234 143 -456 263 -726 42 -96 154 -318 173
-345 9 -12 5 -40 -19 -125 -141 -499 -255 -1101 -277 -1464 -3 -52 -10 -234
-15 -405 -11 -359 -27 -521 -76 -805 -176 -1009 -620 -1804 -1190 -2130 -88
-50 -157 -79 -279 -116 -83 -25 -104 -28 -260 -28 -161 -1 -176 1 -288 31
-306 84 -615 245 -970 506 l-108 79 19 22 c55 60 56 120 5 208 -50 87 -247
387 -356 543 -241 345 -404 543 -629 767 -116 116 -174 181 -187 210 -55 129
-143 517 -197 868 -18 118 -24 196 -22 276 3 123 -6 148 -63 183 -29 18 -29
18 120 25 412 18 837 105 1159 235 242 98 403 200 547 345 150 151 205 269
205 438 0 789 -1810 1277 -3219 868 -517 -151 -862 -388 -987 -681 -36 -85
-45 -235 -19 -325 58 -202 249 -399 537 -553 329 -178 856 -305 1359 -327 149
-7 149 -7 120 -25 -57 -35 -66 -60 -63 -183 2 -80 -4 -158 -22 -276 -54 -351
-142 -739 -197 -868 -13 -29 -71 -94 -187 -210 -225 -224 -388 -422 -629 -767
-109 -156 -306 -456 -356 -543 -46 -79 -49 -131 -11 -188 l26 -38 -33 -29
c-19 -15 -83 -63 -144 -106 -322 -228 -613 -376 -890 -453 -113 -31 -129 -33
-285 -33 -159 0 -169 1 -280 34 -364 110 -683 390 -957 841 -281 461 -484
1127 -548 1795 -9 88 -20 313 -25 500 -15 567 -70 934 -244 1636 l-66 263 64
125 c161 316 290 646 371 951 70 263 78 334 76 640 -6 971 169 2632 385 3650
215 1014 506 1590 804 1590 74 0 143 -35 229 -115 81 -76 97 -85 155 -85 39 0
51 5 86 38 37 36 40 43 40 92 0 67 -21 101 -108 180 -80 72 -213 143 -300 160
-76 15 -198 8 -267 -15 -329 -112 -602 -568 -809 -1350 -129 -485 -241 -1109
-331 -1840 -108 -879 -178 -1875 -161 -2288 8 -199 -5 -326 -54 -527 -71 -288
-173 -557 -351 -928 -38 -79 -69 -150 -69 -159 0 -19 -30 -70 -84 -143 -360
-487 -959 -872 -1782 -1145 -482 -160 -996 -264 -1528 -310 -149 -13 -207 -14
-278 -5 -229 28 -297 106 -268 310 21 151 97 343 290 730 136 274 206 434 231
533 26 99 22 224 -11 387 -22 110 -168 696 -244 980 -44 163 -93 347 -182 683
-328 1237 -494 2063 -494 2463 0 179 32 277 144 435 201 286 739 723 1351
1099 476 292 695 417 1275 733 564 306 2154 1107 2315 1165 288 105 556 131
809 80z m3711 -10605 c16 -86 90 -304 127 -376 35 -67 55 -91 136 -160 151
-131 357 -369 572 -662 118 -162 340 -490 340 -503 0 -6 -6 -12 -14 -15 -440
-169 -778 -237 -1176 -237 -399 0 -735 68 -1176 237 -8 3 -14 9 -14 15 0 13
222 341 340 503 215 293 421 531 572 662 81 69 101 93 136 160 37 72 111 290
127 376 9 47 21 47 30 0z"/>
<path d="M9387 13350 c-161 -41 -294 -212 -354 -456 -23 -95 -23 -333 0 -427
90 -366 341 -551 583 -429 188 95 304 339 304 642 0 129 -13 209 -50 320 -47
141 -152 275 -256 326 -58 28 -165 39 -227 24z"/>
<path d="M14918 13347 c-126 -36 -252 -178 -308 -347 -37 -111 -50 -191 -50
-320 0 -303 116 -547 304 -642 242 -122 493 63 583 429 23 94 23 332 0 427
-53 215 -164 376 -301 436 -59 27 -166 34 -228 17z"/>
</g>
</svg>
